M48
; DRILL file {KiCad 9.0.6} date 2025-12-02T15:14:33-0500
; FORMAT={-:-/ absolute / metric / decimal}
; #@! TF.CreationDate,2025-12-02T15:14:33-05:00
; #@! TF.GenerationSoftware,Kicad,Pcbnew,9.0.6
; #@! TF.FileFunction,NonPlated,1,2,NPTH
FMAT,2
METRIC
; #@! TA.AperFunction,NonPlated,NPTH,ComponentDrill
T1C1.700
; #@! TA.AperFunction,NonPlated,NPTH,ComponentDrill
T2C4.000
%
G90
G05
T1
X105.527Y-59.849
X105.527Y-78.899
X105.527Y-97.949
X105.527Y-116.999
X115.688Y-59.849
X115.688Y-78.899
X115.688Y-97.949
X115.688Y-116.999
X124.578Y-78.899
X124.578Y-97.949
X124.578Y-116.999
X134.737Y-78.899
X134.737Y-97.949
X134.737Y-116.999
X143.627Y-78.899
X143.627Y-97.949
X143.627Y-116.999
X153.787Y-78.899
X153.787Y-97.949
X153.787Y-116.999
X162.677Y-59.849
X162.677Y-78.899
X162.677Y-97.949
X162.677Y-116.999
X172.838Y-59.849
X172.838Y-78.899
X172.838Y-97.949
X172.838Y-116.999
T2
X110.608Y-59.849
X110.608Y-78.899
X110.608Y-97.949
X110.608Y-116.999
X129.657Y-78.899
X129.657Y-97.949
X129.657Y-116.999
X148.707Y-78.899
X148.707Y-97.949
X148.707Y-116.999
X167.757Y-59.849
X167.757Y-78.899
X167.757Y-97.949
X167.757Y-116.999
M30
