%TF.GenerationSoftware,KiCad,Pcbnew,9.0.6*%
%TF.CreationDate,2025-12-02T12:20:49-05:00*%
%TF.ProjectId,TodoPad,546f646f-5061-4642-9e6b-696361645f70,rev?*%
%TF.SameCoordinates,Original*%
%TF.FileFunction,Copper,L1,Top*%
%TF.FilePolarity,Positive*%
%FSLAX46Y46*%
G04 Gerber Fmt 4.6, Leading zero omitted, Abs format (unit mm)*
G04 Created by KiCad (PCBNEW 9.0.6) date 2025-12-02 12:20:49*
%MOMM*%
%LPD*%
G01*
G04 APERTURE LIST*
G04 Aperture macros list*
%AMRoundRect*
0 Rectangle with rounded corners*
0 $1 Rounding radius*
0 $2 $3 $4 $5 $6 $7 $8 $9 X,Y pos of 4 corners*
0 Add a 4 corners polygon primitive as box body*
4,1,4,$2,$3,$4,$5,$6,$7,$8,$9,$2,$3,0*
0 Add four circle primitives for the rounded corners*
1,1,$1+$1,$2,$3*
1,1,$1+$1,$4,$5*
1,1,$1+$1,$6,$7*
1,1,$1+$1,$8,$9*
0 Add four rect primitives between the rounded corners*
20,1,$1+$1,$2,$3,$4,$5,0*
20,1,$1+$1,$4,$5,$6,$7,0*
20,1,$1+$1,$6,$7,$8,$9,0*
20,1,$1+$1,$8,$9,$2,$3,0*%
G04 Aperture macros list end*
%TA.AperFunction,ComponentPad*%
%ADD10RoundRect,0.250000X-0.550000X0.550000X-0.550000X-0.550000X0.550000X-0.550000X0.550000X0.550000X0*%
%TD*%
%TA.AperFunction,ComponentPad*%
%ADD11C,1.600000*%
%TD*%
%TA.AperFunction,ComponentPad*%
%ADD12C,2.200000*%
%TD*%
%TA.AperFunction,ComponentPad*%
%ADD13RoundRect,0.250000X0.550000X-0.550000X0.550000X0.550000X-0.550000X0.550000X-0.550000X-0.550000X0*%
%TD*%
%TA.AperFunction,SMDPad,CuDef*%
%ADD14RoundRect,0.152400X1.063600X0.609600X-1.063600X0.609600X-1.063600X-0.609600X1.063600X-0.609600X0*%
%TD*%
%TA.AperFunction,ComponentPad*%
%ADD15C,1.524000*%
%TD*%
%TA.AperFunction,SMDPad,CuDef*%
%ADD16RoundRect,0.152400X-1.063600X-0.609600X1.063600X-0.609600X1.063600X0.609600X-1.063600X0.609600X0*%
%TD*%
%TA.AperFunction,ComponentPad*%
%ADD17R,1.700000X1.700000*%
%TD*%
%TA.AperFunction,ComponentPad*%
%ADD18O,1.700000X1.700000*%
%TD*%
%TA.AperFunction,ViaPad*%
%ADD19C,0.600000*%
%TD*%
%TA.AperFunction,Conductor*%
%ADD20C,0.200000*%
%TD*%
G04 APERTURE END LIST*
D10*
%TO.P,D4,1,K*%
%TO.N,Row 1*%
X98700000Y-70280000D03*
D11*
%TO.P,D4,2,A*%
%TO.N,Net-(D4-A)*%
X98700000Y-77900000D03*
%TD*%
D12*
%TO.P,SW7,1,1*%
%TO.N,Net-(D3-A)*%
X151247500Y-92868750D03*
%TO.P,SW7,2,2*%
%TO.N,Col 2*%
X144897500Y-95408750D03*
%TD*%
%TO.P,SW9,1,1*%
%TO.N,Net-(D4-A)*%
X113147500Y-73818750D03*
%TO.P,SW9,2,2*%
%TO.N,Col 0*%
X106797500Y-76358750D03*
%TD*%
D13*
%TO.P,D12,1,K*%
%TO.N,Row 2*%
X180500000Y-106710000D03*
D11*
%TO.P,D12,2,A*%
%TO.N,Net-(D12-A)*%
X180500000Y-99090000D03*
%TD*%
D13*
%TO.P,D8,1,K*%
%TO.N,Row 3*%
X97300000Y-124510000D03*
D11*
%TO.P,D8,2,A*%
%TO.N,Net-(D8-A)*%
X97300000Y-116890000D03*
%TD*%
D12*
%TO.P,SW5,1,1*%
%TO.N,Net-(D1-A)*%
X113147500Y-92868750D03*
%TO.P,SW5,2,2*%
%TO.N,Col 0*%
X106797500Y-95408750D03*
%TD*%
%TO.P,SW4,1,1*%
%TO.N,Net-(D13-A)*%
X170297500Y-111918750D03*
%TO.P,SW4,2,2*%
%TO.N,Col 3*%
X163947500Y-114458750D03*
%TD*%
D10*
%TO.P,D10,1,K*%
%TO.N,Row 0*%
X125100000Y-52790000D03*
D11*
%TO.P,D10,2,A*%
%TO.N,Net-(D10-A)*%
X125100000Y-60410000D03*
%TD*%
D12*
%TO.P,SW2,1,1*%
%TO.N,Net-(D8-A)*%
X132197500Y-111918750D03*
%TO.P,SW2,2,2*%
%TO.N,Col 1*%
X125847500Y-114458750D03*
%TD*%
D10*
%TO.P,D6,1,K*%
%TO.N,Row 1*%
X181300000Y-78490000D03*
D11*
%TO.P,D6,2,A*%
%TO.N,Net-(D6-A)*%
X181300000Y-86110000D03*
%TD*%
D13*
%TO.P,D14,1,K*%
%TO.N,Row 1*%
X186500000Y-82550000D03*
D11*
%TO.P,D14,2,A*%
%TO.N,Net-(D14-A)*%
X186500000Y-74930000D03*
%TD*%
D12*
%TO.P,SW6,1,1*%
%TO.N,Net-(D2-A)*%
X132197500Y-92868750D03*
%TO.P,SW6,2,2*%
%TO.N,Col 1*%
X125847500Y-95408750D03*
%TD*%
D13*
%TO.P,D3,1,K*%
%TO.N,Row 2*%
X186500000Y-101600000D03*
D11*
%TO.P,D3,2,A*%
%TO.N,Net-(D3-A)*%
X186500000Y-93980000D03*
%TD*%
D13*
%TO.P,D1,1,K*%
%TO.N,Row 2*%
X98800000Y-102510000D03*
D11*
%TO.P,D1,2,A*%
%TO.N,Net-(D1-A)*%
X98800000Y-94890000D03*
%TD*%
D14*
%TO.P,U1,1,GPIO26/ADC0/A0*%
%TO.N,Row 0*%
X130727500Y-49212500D03*
D15*
X131562500Y-49212500D03*
D14*
%TO.P,U1,2,GPIO27/ADC1/A1*%
%TO.N,Row 1*%
X130727500Y-51752500D03*
D15*
X131562500Y-51752500D03*
D14*
%TO.P,U1,3,GPIO28/ADC2/A2*%
%TO.N,Row 2*%
X130727500Y-54292500D03*
D15*
X131562500Y-54292500D03*
D14*
%TO.P,U1,4,GPIO29/ADC3/A3*%
%TO.N,Row 3*%
X130727500Y-56832500D03*
D15*
X131562500Y-56832500D03*
D14*
%TO.P,U1,5,GPIO6/SDA*%
%TO.N,Net-(U1-GPIO6{slash}SDA)*%
X130727500Y-59372500D03*
D15*
X131562500Y-59372500D03*
D14*
%TO.P,U1,6,GPIO7/SCL*%
%TO.N,Net-(U1-GPIO7{slash}SCL)*%
X130727500Y-61912500D03*
D15*
X131562500Y-61912500D03*
D14*
%TO.P,U1,7,GPIO0/TX*%
%TO.N,unconnected-(U1-GPIO0{slash}TX-Pad7)*%
X130727500Y-64452500D03*
D15*
X131562500Y-64452500D03*
%TO.P,U1,8,GPIO1/RX*%
%TO.N,Col 3*%
X146802500Y-64452500D03*
D16*
X147637500Y-64452500D03*
D15*
%TO.P,U1,9,GPIO2/SCK*%
%TO.N,Col 2*%
X146802500Y-61912500D03*
D16*
X147637500Y-61912500D03*
D15*
%TO.P,U1,10,GPIO4/MISO*%
%TO.N,Col 1*%
X146802500Y-59372500D03*
D16*
X147637500Y-59372500D03*
D15*
%TO.P,U1,11,GPIO3/MOSI*%
%TO.N,Col 0*%
X146802500Y-56832500D03*
D16*
X147637500Y-56832500D03*
D15*
%TO.P,U1,12,3V3*%
%TO.N,unconnected-(U1-3V3-Pad12)*%
X146802500Y-54292500D03*
D16*
X147637500Y-54292500D03*
D15*
%TO.P,U1,13,GND*%
%TO.N,GND*%
X146802500Y-51752500D03*
D16*
X147637500Y-51752500D03*
D15*
%TO.P,U1,14,VBUS*%
%TO.N,+5V*%
X146802500Y-49212500D03*
D16*
X147637500Y-49212500D03*
%TD*%
D13*
%TO.P,D13,1,K*%
%TO.N,Row 3*%
X186300000Y-119010000D03*
D11*
%TO.P,D13,2,A*%
%TO.N,Net-(D13-A)*%
X186300000Y-111390000D03*
%TD*%
D12*
%TO.P,SW10,1,1*%
%TO.N,Net-(D5-A)*%
X132197500Y-73818750D03*
%TO.P,SW10,2,2*%
%TO.N,Col 1*%
X125847500Y-76358750D03*
%TD*%
%TO.P,SW12,1,1*%
%TO.N,Net-(D14-A)*%
X170297500Y-73818750D03*
%TO.P,SW12,2,2*%
%TO.N,Col 3*%
X163947500Y-76358750D03*
%TD*%
D13*
%TO.P,D9,1,K*%
%TO.N,Row 3*%
X180400000Y-125910000D03*
D11*
%TO.P,D9,2,A*%
%TO.N,Net-(D9-A)*%
X180400000Y-118290000D03*
%TD*%
D12*
%TO.P,SW1,1,1*%
%TO.N,Net-(D7-A)*%
X113147500Y-111918750D03*
%TO.P,SW1,2,2*%
%TO.N,Col 0*%
X106797500Y-114458750D03*
%TD*%
%TO.P,SW8,1,1*%
%TO.N,Net-(D12-A)*%
X170297500Y-92868750D03*
%TO.P,SW8,2,2*%
%TO.N,Col 3*%
X163947500Y-95408750D03*
%TD*%
%TO.P,SW14,1,1*%
%TO.N,Net-(D11-A)*%
X170297500Y-54768750D03*
%TO.P,SW14,2,2*%
%TO.N,Col 3*%
X163947500Y-57308750D03*
%TD*%
D13*
%TO.P,D11,1,K*%
%TO.N,Row 0*%
X95900000Y-56510000D03*
D11*
%TO.P,D11,2,A*%
%TO.N,Net-(D11-A)*%
X95900000Y-48890000D03*
%TD*%
D13*
%TO.P,D7,1,K*%
%TO.N,Row 3*%
X93700000Y-115810000D03*
D11*
%TO.P,D7,2,A*%
%TO.N,Net-(D7-A)*%
X93700000Y-108190000D03*
%TD*%
D12*
%TO.P,SW11,1,1*%
%TO.N,Net-(D6-A)*%
X151247500Y-73818750D03*
%TO.P,SW11,2,2*%
%TO.N,Col 2*%
X144897500Y-76358750D03*
%TD*%
D10*
%TO.P,D5,1,K*%
%TO.N,Row 1*%
X92400000Y-74690000D03*
D11*
%TO.P,D5,2,A*%
%TO.N,Net-(D5-A)*%
X92400000Y-82310000D03*
%TD*%
D12*
%TO.P,SW13,1,1*%
%TO.N,Net-(D10-A)*%
X113147500Y-54768750D03*
%TO.P,SW13,2,2*%
%TO.N,Col 0*%
X106797500Y-57308750D03*
%TD*%
D17*
%TO.P,U2,1,Gnd*%
%TO.N,GND*%
X157400000Y-130590000D03*
D18*
%TO.P,U2,2,VCC*%
%TO.N,+5V*%
X157400000Y-133130000D03*
%TO.P,U2,3,SCL*%
%TO.N,Net-(U1-GPIO7{slash}SCL)*%
X157400000Y-135670000D03*
%TO.P,U2,4,SDA*%
%TO.N,Net-(U1-GPIO6{slash}SDA)*%
X157400000Y-138210000D03*
%TD*%
D13*
%TO.P,D2,1,K*%
%TO.N,Row 2*%
X94000000Y-95910000D03*
D11*
%TO.P,D2,2,A*%
%TO.N,Net-(D2-A)*%
X94000000Y-88290000D03*
%TD*%
D12*
%TO.P,SW3,1,1*%
%TO.N,Net-(D9-A)*%
X151247500Y-111918750D03*
%TO.P,SW3,2,2*%
%TO.N,Col 2*%
X144897500Y-114458750D03*
%TD*%
D19*
%TO.N,Row 3*%
X135300000Y-64400000D03*
%TD*%
D20*
%TO.N,Row 3*%
X148492126Y-58296500D02*
X149154500Y-57634126D01*
X135300000Y-64400000D02*
X141403500Y-58296500D01*
X148893126Y-55769500D02*
X132625500Y-55769500D01*
X141403500Y-58296500D02*
X148492126Y-58296500D01*
X149154500Y-56030874D02*
X148893126Y-55769500D01*
X132625500Y-55769500D02*
X131562500Y-56832500D01*
X149154500Y-57634126D02*
X149154500Y-56030874D01*
%TO.N,Col 0*%
X128885124Y-57308750D02*
X129471874Y-57895500D01*
X107115000Y-57308750D02*
X128885124Y-57308750D01*
X107115000Y-57308750D02*
X107115000Y-76358750D01*
X129471874Y-57895500D02*
X145739500Y-57895500D01*
X107115000Y-95408750D02*
X107115000Y-114458750D01*
X107115000Y-76358750D02*
X107115000Y-95408750D01*
X145739500Y-57895500D02*
X146802500Y-56832500D01*
%TO.N,Col 1*%
X126165000Y-76358750D02*
X143151250Y-59372500D01*
X126165000Y-95408750D02*
X126165000Y-114458750D01*
X126165000Y-76358750D02*
X126165000Y-95408750D01*
X143151250Y-59372500D02*
X146802500Y-59372500D01*
%TO.N,Col 2*%
X145215000Y-95408750D02*
X145215000Y-114458750D01*
X145215000Y-76358750D02*
X145215000Y-63500000D01*
X145215000Y-63500000D02*
X146802500Y-61912500D01*
X145215000Y-76358750D02*
X145215000Y-95408750D01*
%TO.N,Col 3*%
X164265000Y-57308750D02*
X164265000Y-76358750D01*
X147416126Y-64452500D02*
X146802500Y-64452500D01*
X154559876Y-57308750D02*
X147416126Y-64452500D01*
X164265000Y-76358750D02*
X164265000Y-95408750D01*
X164265000Y-57308750D02*
X154559876Y-57308750D01*
X164265000Y-114458750D02*
X164265000Y-95408750D01*
%TO.N,+5V*%
X142426500Y-118845250D02*
X142426500Y-64785190D01*
X142426500Y-64785190D02*
X146362190Y-60849500D01*
X146362190Y-55355500D02*
X145739500Y-54732810D01*
X156797500Y-133216250D02*
X142426500Y-118845250D01*
X153150763Y-58150763D02*
X150355500Y-55355500D01*
X150355500Y-55355500D02*
X146362190Y-55355500D01*
X145739500Y-50275500D02*
X146802500Y-49212500D01*
X150452026Y-60849500D02*
X153150763Y-58150763D01*
X157313750Y-133216250D02*
X156797500Y-133216250D01*
X145739500Y-54732810D02*
X145739500Y-50275500D01*
X146362190Y-60849500D02*
X150452026Y-60849500D01*
X157400000Y-133130000D02*
X157313750Y-133216250D01*
%TO.N,Net-(U1-GPIO7{slash}SCL)*%
X128409128Y-113878436D02*
X126427814Y-115859750D01*
X134919686Y-113878436D02*
X128409128Y-113878436D01*
X157313750Y-135756250D02*
X156797500Y-135756250D01*
X126427814Y-115859750D02*
X125267186Y-115859750D01*
X125267186Y-115859750D02*
X123376500Y-113969064D01*
X156797500Y-135756250D02*
X134919686Y-113878436D01*
X123376500Y-113969064D02*
X123376500Y-69263500D01*
X157400000Y-135670000D02*
X157313750Y-135756250D01*
X123376500Y-69263500D02*
X130727500Y-61912500D01*
%TO.N,GND*%
X157600000Y-130390000D02*
X157400000Y-130590000D01*
X157600000Y-129873750D02*
X157600000Y-130390000D01*
X146802500Y-51752500D02*
X160372564Y-51752500D01*
X160372564Y-51752500D02*
X165348500Y-56728436D01*
X165348500Y-56728436D02*
X165348500Y-122125250D01*
X165348500Y-122125250D02*
X157600000Y-129873750D01*
%TO.N,Net-(U1-GPIO6{slash}SDA)*%
X157400000Y-138210000D02*
X157313750Y-138296250D01*
X130727500Y-59372500D02*
X131562500Y-59372500D01*
X122975500Y-67124500D02*
X130727500Y-59372500D01*
X157313750Y-138296250D02*
X144176530Y-138296250D01*
X122975500Y-117095220D02*
X122975500Y-67124500D01*
X144176530Y-138296250D02*
X122975500Y-117095220D01*
%TD*%
M02*
