%TF.GenerationSoftware,KiCad,Pcbnew,9.0.6*%
%TF.CreationDate,2025-12-02T12:20:49-05:00*%
%TF.ProjectId,TodoPad,546f646f-5061-4642-9e6b-696361645f70,rev?*%
%TF.SameCoordinates,Original*%
%TF.FileFunction,Copper,L2,Bot*%
%TF.FilePolarity,Positive*%
%FSLAX46Y46*%
G04 Gerber Fmt 4.6, Leading zero omitted, Abs format (unit mm)*
G04 Created by KiCad (PCBNEW 9.0.6) date 2025-12-02 12:20:49*
%MOMM*%
%LPD*%
G01*
G04 APERTURE LIST*
G04 Aperture macros list*
%AMRoundRect*
0 Rectangle with rounded corners*
0 $1 Rounding radius*
0 $2 $3 $4 $5 $6 $7 $8 $9 X,Y pos of 4 corners*
0 Add a 4 corners polygon primitive as box body*
4,1,4,$2,$3,$4,$5,$6,$7,$8,$9,$2,$3,0*
0 Add four circle primitives for the rounded corners*
1,1,$1+$1,$2,$3*
1,1,$1+$1,$4,$5*
1,1,$1+$1,$6,$7*
1,1,$1+$1,$8,$9*
0 Add four rect primitives between the rounded corners*
20,1,$1+$1,$2,$3,$4,$5,0*
20,1,$1+$1,$4,$5,$6,$7,0*
20,1,$1+$1,$6,$7,$8,$9,0*
20,1,$1+$1,$8,$9,$2,$3,0*%
G04 Aperture macros list end*
%TA.AperFunction,ComponentPad*%
%ADD10RoundRect,0.250000X-0.550000X0.550000X-0.550000X-0.550000X0.550000X-0.550000X0.550000X0.550000X0*%
%TD*%
%TA.AperFunction,ComponentPad*%
%ADD11C,1.600000*%
%TD*%
%TA.AperFunction,ComponentPad*%
%ADD12C,2.200000*%
%TD*%
%TA.AperFunction,ComponentPad*%
%ADD13RoundRect,0.250000X0.550000X-0.550000X0.550000X0.550000X-0.550000X0.550000X-0.550000X-0.550000X0*%
%TD*%
%TA.AperFunction,ComponentPad*%
%ADD14C,1.524000*%
%TD*%
%TA.AperFunction,ComponentPad*%
%ADD15R,1.700000X1.700000*%
%TD*%
%TA.AperFunction,ComponentPad*%
%ADD16O,1.700000X1.700000*%
%TD*%
%TA.AperFunction,ViaPad*%
%ADD17C,0.600000*%
%TD*%
%TA.AperFunction,Conductor*%
%ADD18C,0.200000*%
%TD*%
G04 APERTURE END LIST*
D10*
%TO.P,D4,1,K*%
%TO.N,Row 1*%
X98700000Y-70280000D03*
D11*
%TO.P,D4,2,A*%
%TO.N,Net-(D4-A)*%
X98700000Y-77900000D03*
%TD*%
D12*
%TO.P,SW7,1,1*%
%TO.N,Net-(D3-A)*%
X151247500Y-92868750D03*
%TO.P,SW7,2,2*%
%TO.N,Col 2*%
X144897500Y-95408750D03*
%TD*%
%TO.P,SW9,1,1*%
%TO.N,Net-(D4-A)*%
X113147500Y-73818750D03*
%TO.P,SW9,2,2*%
%TO.N,Col 0*%
X106797500Y-76358750D03*
%TD*%
D13*
%TO.P,D12,1,K*%
%TO.N,Row 2*%
X180500000Y-106710000D03*
D11*
%TO.P,D12,2,A*%
%TO.N,Net-(D12-A)*%
X180500000Y-99090000D03*
%TD*%
D13*
%TO.P,D8,1,K*%
%TO.N,Row 3*%
X97300000Y-124510000D03*
D11*
%TO.P,D8,2,A*%
%TO.N,Net-(D8-A)*%
X97300000Y-116890000D03*
%TD*%
D12*
%TO.P,SW5,1,1*%
%TO.N,Net-(D1-A)*%
X113147500Y-92868750D03*
%TO.P,SW5,2,2*%
%TO.N,Col 0*%
X106797500Y-95408750D03*
%TD*%
%TO.P,SW4,1,1*%
%TO.N,Net-(D13-A)*%
X170297500Y-111918750D03*
%TO.P,SW4,2,2*%
%TO.N,Col 3*%
X163947500Y-114458750D03*
%TD*%
D10*
%TO.P,D10,1,K*%
%TO.N,Row 0*%
X125100000Y-52790000D03*
D11*
%TO.P,D10,2,A*%
%TO.N,Net-(D10-A)*%
X125100000Y-60410000D03*
%TD*%
D12*
%TO.P,SW2,1,1*%
%TO.N,Net-(D8-A)*%
X132197500Y-111918750D03*
%TO.P,SW2,2,2*%
%TO.N,Col 1*%
X125847500Y-114458750D03*
%TD*%
D10*
%TO.P,D6,1,K*%
%TO.N,Row 1*%
X181300000Y-78490000D03*
D11*
%TO.P,D6,2,A*%
%TO.N,Net-(D6-A)*%
X181300000Y-86110000D03*
%TD*%
D13*
%TO.P,D14,1,K*%
%TO.N,Row 1*%
X186500000Y-82550000D03*
D11*
%TO.P,D14,2,A*%
%TO.N,Net-(D14-A)*%
X186500000Y-74930000D03*
%TD*%
D12*
%TO.P,SW6,1,1*%
%TO.N,Net-(D2-A)*%
X132197500Y-92868750D03*
%TO.P,SW6,2,2*%
%TO.N,Col 1*%
X125847500Y-95408750D03*
%TD*%
D13*
%TO.P,D3,1,K*%
%TO.N,Row 2*%
X186500000Y-101600000D03*
D11*
%TO.P,D3,2,A*%
%TO.N,Net-(D3-A)*%
X186500000Y-93980000D03*
%TD*%
D13*
%TO.P,D1,1,K*%
%TO.N,Row 2*%
X98800000Y-102510000D03*
D11*
%TO.P,D1,2,A*%
%TO.N,Net-(D1-A)*%
X98800000Y-94890000D03*
%TD*%
D14*
%TO.P,U1,1,GPIO26/ADC0/A0*%
%TO.N,Row 0*%
X131562500Y-49212500D03*
%TO.P,U1,2,GPIO27/ADC1/A1*%
%TO.N,Row 1*%
X131562500Y-51752500D03*
%TO.P,U1,3,GPIO28/ADC2/A2*%
%TO.N,Row 2*%
X131562500Y-54292500D03*
%TO.P,U1,4,GPIO29/ADC3/A3*%
%TO.N,Row 3*%
X131562500Y-56832500D03*
%TO.P,U1,5,GPIO6/SDA*%
%TO.N,Net-(U1-GPIO6{slash}SDA)*%
X131562500Y-59372500D03*
%TO.P,U1,6,GPIO7/SCL*%
%TO.N,Net-(U1-GPIO7{slash}SCL)*%
X131562500Y-61912500D03*
%TO.P,U1,7,GPIO0/TX*%
%TO.N,unconnected-(U1-GPIO0{slash}TX-Pad7)*%
X131562500Y-64452500D03*
%TO.P,U1,8,GPIO1/RX*%
%TO.N,Col 3*%
X146802500Y-64452500D03*
%TO.P,U1,9,GPIO2/SCK*%
%TO.N,Col 2*%
X146802500Y-61912500D03*
%TO.P,U1,10,GPIO4/MISO*%
%TO.N,Col 1*%
X146802500Y-59372500D03*
%TO.P,U1,11,GPIO3/MOSI*%
%TO.N,Col 0*%
X146802500Y-56832500D03*
%TO.P,U1,12,3V3*%
%TO.N,unconnected-(U1-3V3-Pad12)*%
X146802500Y-54292500D03*
%TO.P,U1,13,GND*%
%TO.N,GND*%
X146802500Y-51752500D03*
%TO.P,U1,14,VBUS*%
%TO.N,+5V*%
X146802500Y-49212500D03*
%TD*%
D13*
%TO.P,D13,1,K*%
%TO.N,Row 3*%
X186300000Y-119010000D03*
D11*
%TO.P,D13,2,A*%
%TO.N,Net-(D13-A)*%
X186300000Y-111390000D03*
%TD*%
D12*
%TO.P,SW10,1,1*%
%TO.N,Net-(D5-A)*%
X132197500Y-73818750D03*
%TO.P,SW10,2,2*%
%TO.N,Col 1*%
X125847500Y-76358750D03*
%TD*%
%TO.P,SW12,1,1*%
%TO.N,Net-(D14-A)*%
X170297500Y-73818750D03*
%TO.P,SW12,2,2*%
%TO.N,Col 3*%
X163947500Y-76358750D03*
%TD*%
D13*
%TO.P,D9,1,K*%
%TO.N,Row 3*%
X180400000Y-125910000D03*
D11*
%TO.P,D9,2,A*%
%TO.N,Net-(D9-A)*%
X180400000Y-118290000D03*
%TD*%
D12*
%TO.P,SW1,1,1*%
%TO.N,Net-(D7-A)*%
X113147500Y-111918750D03*
%TO.P,SW1,2,2*%
%TO.N,Col 0*%
X106797500Y-114458750D03*
%TD*%
%TO.P,SW8,1,1*%
%TO.N,Net-(D12-A)*%
X170297500Y-92868750D03*
%TO.P,SW8,2,2*%
%TO.N,Col 3*%
X163947500Y-95408750D03*
%TD*%
%TO.P,SW14,1,1*%
%TO.N,Net-(D11-A)*%
X170297500Y-54768750D03*
%TO.P,SW14,2,2*%
%TO.N,Col 3*%
X163947500Y-57308750D03*
%TD*%
D13*
%TO.P,D11,1,K*%
%TO.N,Row 0*%
X95900000Y-56510000D03*
D11*
%TO.P,D11,2,A*%
%TO.N,Net-(D11-A)*%
X95900000Y-48890000D03*
%TD*%
D13*
%TO.P,D7,1,K*%
%TO.N,Row 3*%
X93700000Y-115810000D03*
D11*
%TO.P,D7,2,A*%
%TO.N,Net-(D7-A)*%
X93700000Y-108190000D03*
%TD*%
D12*
%TO.P,SW11,1,1*%
%TO.N,Net-(D6-A)*%
X151247500Y-73818750D03*
%TO.P,SW11,2,2*%
%TO.N,Col 2*%
X144897500Y-76358750D03*
%TD*%
D10*
%TO.P,D5,1,K*%
%TO.N,Row 1*%
X92400000Y-74690000D03*
D11*
%TO.P,D5,2,A*%
%TO.N,Net-(D5-A)*%
X92400000Y-82310000D03*
%TD*%
D12*
%TO.P,SW13,1,1*%
%TO.N,Net-(D10-A)*%
X113147500Y-54768750D03*
%TO.P,SW13,2,2*%
%TO.N,Col 0*%
X106797500Y-57308750D03*
%TD*%
D15*
%TO.P,U2,1,Gnd*%
%TO.N,GND*%
X157400000Y-130590000D03*
D16*
%TO.P,U2,2,VCC*%
%TO.N,+5V*%
X157400000Y-133130000D03*
%TO.P,U2,3,SCL*%
%TO.N,Net-(U1-GPIO7{slash}SCL)*%
X157400000Y-135670000D03*
%TO.P,U2,4,SDA*%
%TO.N,Net-(U1-GPIO6{slash}SDA)*%
X157400000Y-138210000D03*
%TD*%
D13*
%TO.P,D2,1,K*%
%TO.N,Row 2*%
X94000000Y-95910000D03*
D11*
%TO.P,D2,2,A*%
%TO.N,Net-(D2-A)*%
X94000000Y-88290000D03*
%TD*%
D12*
%TO.P,SW3,1,1*%
%TO.N,Net-(D9-A)*%
X151247500Y-111918750D03*
%TO.P,SW3,2,2*%
%TO.N,Col 2*%
X144897500Y-114458750D03*
%TD*%
D17*
%TO.N,Row 3*%
X135300000Y-64400000D03*
%TD*%
D18*
%TO.N,Row 2*%
X160753684Y-94269750D02*
X150667186Y-94269750D01*
X136657000Y-64907057D02*
X134249943Y-62500000D01*
X180500000Y-106900000D02*
X180800000Y-107200000D01*
X180500000Y-106710000D02*
X180500000Y-106900000D01*
X132625500Y-55355500D02*
X131562500Y-54292500D01*
X150667186Y-94269750D02*
X136657000Y-80259564D01*
X98021950Y-82711000D02*
X129226780Y-82711000D01*
X92899000Y-87833950D02*
X98021950Y-82711000D01*
X132625500Y-56860564D02*
X132625500Y-55355500D01*
X133916000Y-58151064D02*
X132625500Y-56860564D01*
X129226780Y-82711000D02*
X133916000Y-78021780D01*
X136657000Y-80259564D02*
X136657000Y-64907057D01*
X98800000Y-100710000D02*
X94000000Y-95910000D01*
X133916000Y-62500000D02*
X133916000Y-58151064D01*
X98800000Y-102510000D02*
X98800000Y-100710000D01*
X186400000Y-101600000D02*
X186500000Y-101600000D01*
X133916000Y-78021780D02*
X133916000Y-62500000D01*
X92899000Y-96609000D02*
X92899000Y-87833950D01*
X134249943Y-62500000D02*
X133916000Y-62500000D01*
X180800000Y-107200000D02*
X186400000Y-101600000D01*
X98800000Y-102510000D02*
X92899000Y-96609000D01*
X180500000Y-106710000D02*
X173193934Y-106710000D01*
X173193934Y-106710000D02*
X160753684Y-94269750D01*
%TO.N,Net-(D1-A)*%
X98800000Y-94890000D02*
X100821250Y-92868750D01*
X113353750Y-92980000D02*
X113465000Y-92868750D01*
X100821250Y-92868750D02*
X113465000Y-92868750D01*
%TO.N,Net-(D2-A)*%
X127936250Y-88290000D02*
X132515000Y-92868750D01*
X94000000Y-88290000D02*
X127936250Y-88290000D01*
%TO.N,Net-(D3-A)*%
X186500000Y-93980000D02*
X186500000Y-93196250D01*
X152966000Y-91467750D02*
X151565000Y-92868750D01*
X186500000Y-93196250D02*
X184771500Y-91467750D01*
X184771500Y-91467750D02*
X152966000Y-91467750D01*
%TO.N,Row 1*%
X141748810Y-62975500D02*
X131773310Y-53000000D01*
X131773310Y-53000000D02*
X130499500Y-53000000D01*
X152975500Y-62975500D02*
X141748810Y-62975500D01*
X98700000Y-70280000D02*
X98680000Y-70280000D01*
X130499500Y-52815500D02*
X131562500Y-51752500D01*
X181300000Y-78490000D02*
X179357750Y-76547750D01*
X130499500Y-53000000D02*
X130499500Y-52815500D01*
X98680000Y-70280000D02*
X94270000Y-74690000D01*
X94270000Y-74690000D02*
X92400000Y-74690000D01*
X179357750Y-76547750D02*
X166547750Y-76547750D01*
X185360000Y-82550000D02*
X181300000Y-78490000D01*
X186500000Y-82550000D02*
X185360000Y-82550000D01*
X116787050Y-70280000D02*
X130499500Y-56567550D01*
X130499500Y-56567550D02*
X130499500Y-53000000D01*
X166547750Y-76547750D02*
X152975500Y-62975500D01*
X98700000Y-70280000D02*
X116787050Y-70280000D01*
%TO.N,Net-(D4-A)*%
X98700000Y-77900000D02*
X102781250Y-73818750D01*
X102781250Y-73818750D02*
X113465000Y-73818750D01*
%TO.N,Net-(D5-A)*%
X115128814Y-73818750D02*
X112399814Y-76547750D01*
X132197500Y-73818750D02*
X115128814Y-73818750D01*
X109576970Y-76547750D02*
X103814720Y-82310000D01*
X112399814Y-76547750D02*
X109576970Y-76547750D01*
X103814720Y-82310000D02*
X92400000Y-82310000D01*
%TO.N,Net-(D6-A)*%
X163856250Y-86110000D02*
X181300000Y-86110000D01*
X151565000Y-73818750D02*
X163856250Y-86110000D01*
%TO.N,Net-(D7-A)*%
X93700000Y-108190000D02*
X109736250Y-108190000D01*
X109736250Y-108190000D02*
X113465000Y-111918750D01*
%TO.N,Row 3*%
X136256000Y-65356000D02*
X135300000Y-64400000D01*
X96199000Y-116433950D02*
X97593886Y-115039064D01*
X136132532Y-91834752D02*
X136132532Y-91232532D01*
X97300000Y-124510000D02*
X97300000Y-119410000D01*
X164418064Y-125910000D02*
X180400000Y-125910000D01*
X135983642Y-91983642D02*
X135983642Y-98636206D01*
X96199000Y-118309000D02*
X96199000Y-116433950D01*
X136256000Y-91109064D02*
X136256000Y-65356000D01*
X108421684Y-115859750D02*
X110961684Y-113319750D01*
X97300000Y-119410000D02*
X93700000Y-115810000D01*
X105396500Y-115039064D02*
X106217186Y-115859750D01*
X135983642Y-98636206D02*
X150667186Y-113319750D01*
X113727814Y-113319750D02*
X114548500Y-112499064D01*
X136132532Y-91232532D02*
X136256000Y-91109064D01*
X133697534Y-94269750D02*
X135983642Y-91983642D01*
X106217186Y-115859750D02*
X108421684Y-115859750D01*
X135983642Y-91983642D02*
X136132532Y-91834752D01*
X97300000Y-119410000D02*
X96199000Y-118309000D01*
X114548500Y-112499064D02*
X114548500Y-109697064D01*
X110961684Y-113319750D02*
X113727814Y-113319750D01*
X150667186Y-113319750D02*
X151827814Y-113319750D01*
X129975814Y-94269750D02*
X133697534Y-94269750D01*
X114548500Y-109697064D02*
X129975814Y-94269750D01*
X186300000Y-120010000D02*
X180400000Y-125910000D01*
X151827814Y-113319750D02*
X164418064Y-125910000D01*
X97593886Y-115039064D02*
X105396500Y-115039064D01*
X186300000Y-119010000D02*
X186300000Y-120010000D01*
%TO.N,Net-(D8-A)*%
X99759750Y-119349750D02*
X97300000Y-116890000D01*
X132197500Y-111918750D02*
X119012316Y-111918750D01*
X111581316Y-119349750D02*
X99759750Y-119349750D01*
X119012316Y-111918750D02*
X111581316Y-119349750D01*
%TO.N,Net-(D9-A)*%
X179340250Y-119349750D02*
X180400000Y-118290000D01*
X151247500Y-111918750D02*
X158678500Y-119349750D01*
X158678500Y-119349750D02*
X179340250Y-119349750D01*
%TO.N,Row 0*%
X95900000Y-56510000D02*
X99620000Y-52790000D01*
X127985000Y-52790000D02*
X131562500Y-49212500D01*
X125100000Y-52790000D02*
X127985000Y-52790000D01*
X99620000Y-52790000D02*
X125100000Y-52790000D01*
%TO.N,Net-(D10-A)*%
X119458750Y-54768750D02*
X125100000Y-60410000D01*
X113465000Y-54768750D02*
X119458750Y-54768750D01*
%TO.N,Net-(D11-A)*%
X95900000Y-48890000D02*
X96699999Y-48090001D01*
X163936251Y-48090001D02*
X170615000Y-54768750D01*
X96699999Y-48090001D02*
X163936251Y-48090001D01*
%TO.N,Net-(D12-A)*%
X180500000Y-99090000D02*
X176836250Y-99090000D01*
X176836250Y-99090000D02*
X170615000Y-92868750D01*
%TO.N,Net-(D13-A)*%
X171143750Y-111390000D02*
X170615000Y-111918750D01*
X186300000Y-111390000D02*
X171143750Y-111390000D01*
%TO.N,Net-(D14-A)*%
X171726250Y-74930000D02*
X170615000Y-73818750D01*
X186500000Y-74930000D02*
X171726250Y-74930000D01*
%TD*%
M02*
