M48
; DRILL file {KiCad 9.0.6} date 2025-12-02T15:14:33-0500
; FORMAT={-:-/ absolute / metric / decimal}
; #@! TF.CreationDate,2025-12-02T15:14:33-05:00
; #@! TF.GenerationSoftware,Kicad,Pcbnew,9.0.6
; #@! TF.FileFunction,Plated,1,2,PTH
FMAT,2
METRIC
; #@! TA.AperFunction,Plated,PTH,ViaDrill
T1C0.300
; #@! TA.AperFunction,Plated,PTH,ComponentDrill
T2C0.800
; #@! TA.AperFunction,Plated,PTH,ComponentDrill
T3C0.889
; #@! TA.AperFunction,Plated,PTH,ComponentDrill
T4C1.000
; #@! TA.AperFunction,Plated,PTH,ComponentDrill
T5C1.500
%
G90
G05
T1
X135.3Y-64.4
T2
X92.4Y-74.69
X92.4Y-82.31
X93.7Y-108.19
X93.7Y-115.81
X94.0Y-88.29
X94.0Y-95.91
X95.9Y-48.89
X95.9Y-56.51
X97.3Y-116.89
X97.3Y-124.51
X98.7Y-70.28
X98.7Y-77.9
X98.8Y-94.89
X98.8Y-102.51
X125.1Y-52.79
X125.1Y-60.41
X180.4Y-118.29
X180.4Y-125.91
X180.5Y-99.09
X180.5Y-106.71
X181.3Y-78.49
X181.3Y-86.11
X186.3Y-111.39
X186.3Y-119.01
X186.5Y-74.93
X186.5Y-82.55
X186.5Y-93.98
X186.5Y-101.6
T3
X131.562Y-49.212
X131.562Y-51.752
X131.562Y-54.292
X131.562Y-56.832
X131.562Y-59.372
X131.562Y-61.912
X131.562Y-64.453
X146.802Y-49.212
X146.802Y-51.752
X146.802Y-54.292
X146.802Y-56.832
X146.802Y-59.372
X146.802Y-61.912
X146.802Y-64.453
T4
X157.4Y-130.59
X157.4Y-133.13
X157.4Y-135.67
X157.4Y-138.21
T5
X106.797Y-57.309
X106.797Y-76.359
X106.797Y-95.409
X106.797Y-114.459
X113.147Y-54.769
X113.147Y-73.819
X113.147Y-92.869
X113.147Y-111.919
X125.847Y-76.359
X125.847Y-95.409
X125.847Y-114.459
X132.197Y-73.819
X132.197Y-92.869
X132.197Y-111.919
X144.897Y-76.359
X144.897Y-95.409
X144.897Y-114.459
X151.248Y-73.819
X151.248Y-92.869
X151.248Y-111.919
X163.947Y-57.309
X163.947Y-76.359
X163.947Y-95.409
X163.947Y-114.459
X170.297Y-54.769
X170.297Y-73.819
X170.297Y-92.869
X170.297Y-111.919
M30
